<svg xmlns="http://www.w3.org/2000/svg" version="1.1" xmlns:xlink="http://www.w3.org/1999/xlink" xmlns:svgjs="http://svgjs.dev/svgjs" width="1000" height="1000" viewBox="0 0 1000 1000"><rect width="1000" height="1000" fill="#000000"></rect><g transform="matrix(0.7,0,0,0.7,149.57575757575756,282.1265587044535)"><svg viewBox="0 0 396 247" data-background-color="#096a2e" preserveAspectRatio="xMidYMid meet" height="623" width="1000" xmlns="http://www.w3.org/2000/svg" xmlns:xlink="http://www.w3.org/1999/xlink"><g id="tight-bounds" transform="matrix(1,0,0,1,0.2400000000000091,-0.09999999999999432)"><svg viewBox="0 0 395.52 247.2" height="247.2" width="395.52"><g><svg></svg></g><g><svg viewBox="0 0 395.52 247.2" height="247.2" width="395.52"><g transform="matrix(1,0,0,1,96.592576,47.215199999999996)"><svg viewBox="0 0 202.334848 152.7696" height="152.7696" width="202.334848"><g><svg viewBox="0 0 202.334848 152.7696" height="152.7696" width="202.334848"><g><svg viewBox="0 0 202.334848 152.7696" height="152.7696" width="202.334848"><g><svg viewBox="0 0 202.334848 152.7696" height="152.7696" width="202.334848"><g id="textblocktransform"><svg viewBox="0 0 202.334848 152.7696" height="152.7696" width="202.334848" id="textblock"><g><svg viewBox="0 0 202.334848 152.7696" height="152.7696" width="202.334848"><g transform="matrix(1,0,0,1,0,0)"><svg width="202.334848" viewBox="2.700000047683716 -33.25 44.70000076293945 33.75" height="152.7696" data-palette-color="#c9efc7"><path d="M11.33-15.73Q6.85-16.8 4.78-18.88 2.7-20.95 2.7-24.9 2.7-28.85 5.43-31.05 8.15-33.25 12.45-33.25 16.75-33.25 21.2-31.7L21.2-31.7 20.5-29.15Q16.35-30.65 12.88-30.65 9.4-30.65 7.55-29.18 5.7-27.7 5.7-24.9 5.7-22.1 7.2-20.65 8.7-19.2 13.18-18.03 17.65-16.85 19.65-14.93 21.65-13 21.65-8.72 21.65-4.45 18.78-1.98 15.9 0.5 11.35 0.5L11.35 0.5Q7.95 0.5 2.75-0.95L2.75-0.95 3.4-3.5Q8.5-2.1 11.6-2.1 14.7-2.1 16.7-3.83 18.7-5.55 18.7-8.65 18.7-11.75 17.25-13.2 15.8-14.65 11.33-15.73ZM38.4-13.45L38.4-13.45Q35.7-13.3 34.9-13.3L34.9-13.3 30.8-13.3 30.8 0 28.05 0 28.05-32.75 35.4-32.75Q41.5-32.75 44.35-30.65 47.2-28.55 47.2-23.25L47.2-23.25Q47.2-19.7 45.77-17.55 44.35-15.4 41.2-14.05L41.2-14.05Q44.6-7.6 47.4 0L47.4 0 44.4 0Q41.65-7.3 38.4-13.45ZM35.3-30.25L35.3-30.25 30.8-30.25 30.8-15.8 34.8-15.8Q39.4-15.8 41.85-17.48 44.3-19.15 44.3-23.25 44.3-27.35 42.12-28.8 39.95-30.25 35.3-30.25Z" opacity="1" transform="matrix(1,0,0,1,0,0)" fill="#ffffff" class="undefined-text-0" data-fill-palette-color="primary" id="text-0"></path></svg></g></svg></g></svg></g></svg></g></svg></g></svg></g></svg></g><path d="M116.626 41.215L116.626 0 363.826 0 363.826 247.2 116.626 247.2 116.626 205.985 130.403 205.985 130.403 233.423 350.049 233.423 350.049 13.777 130.403 13.777 130.403 41.215Z" fill="#ffffff" stroke="transparent" data-fill-palette-color="primary"></path></svg></g><defs></defs></svg><rect width="395.52" height="247.2" fill="none" stroke="none" visibility="hidden"></rect></g></svg></g></svg>